<svg width="260" height="190" viewBox="0 0 260 190" fill="none" xmlns="http://www.w3.org/2000/svg">
<g clip-path="url(#clip0)">
<path d="M140.412 149.137C148.79 159.033 154.227 171.079 156.106 183.908C156.118 184.188 156.193 184.462 156.325 184.71C156.456 184.958 156.641 185.173 156.867 185.34C157.092 185.507 157.352 185.622 157.627 185.676C157.902 185.73 158.186 185.721 158.458 185.652C170.203 183.074 181.278 178.07 190.974 170.959C201.289 163.326 209.826 153.356 221.635 147.877C221.86 147.783 222.06 147.638 222.218 147.452C222.376 147.265 222.488 147.044 222.544 146.807C222.599 146.569 222.597 146.321 222.538 146.084C222.479 145.847 222.365 145.628 222.204 145.444C222.18 145.343 222.149 145.243 222.109 145.147C217.168 133.37 211.516 121.905 205.185 110.814C204.922 110.404 204.512 110.111 204.039 109.996C203.566 109.882 203.067 109.953 202.645 110.197C181.443 120.118 166.521 144.371 141.647 145.935C141.283 145.95 140.931 146.071 140.634 146.283C140.338 146.496 140.11 146.79 139.979 147.131C139.848 147.471 139.819 147.842 139.896 148.198C139.973 148.555 140.152 148.881 140.412 149.137Z" fill="#EAE2C2"/>
<path d="M168.35 171.343C165.317 164.195 162.014 157.177 158.441 150.288C157.346 148.177 154.193 150.106 155.285 152.211C158.71 158.78 161.884 165.502 164.808 172.376C165.729 174.541 169.288 173.55 168.362 171.362L168.35 171.343Z" fill="#BCB080"/>
<path d="M177.916 166.97C175.452 160.168 172.673 153.494 169.58 146.948C168.564 144.797 165.419 146.739 166.423 148.871C169.37 155.119 172.015 161.488 174.358 167.977C175.161 170.206 178.723 169.204 177.912 166.963L177.916 166.97Z" fill="#BCB080"/>
<path d="M185.919 141.617C184.82 139.975 183.86 138.243 183.051 136.44C182.794 136.023 182.384 135.724 181.908 135.609C181.432 135.493 180.93 135.57 180.511 135.823C180.102 136.086 179.809 136.496 179.694 136.969C179.579 137.442 179.651 137.941 179.894 138.363C180.704 140.166 181.663 141.897 182.762 143.54C184.079 145.516 187.245 143.596 185.919 141.617Z" fill="#BCB080"/>
<path d="M189.561 136.23C188.802 134.572 187.754 133.063 186.465 131.772C184.8 130.077 182.265 132.764 183.934 134.465C184.971 135.537 185.808 136.786 186.405 138.153C186.661 138.57 187.072 138.869 187.548 138.984C188.023 139.1 188.525 139.023 188.945 138.77C189.354 138.507 189.647 138.096 189.762 137.624C189.877 137.151 189.805 136.652 189.561 136.23Z" fill="#BCB080"/>
<path d="M208.267 145.625C204.957 139.168 201.493 132.814 198.428 126.233C197.428 124.081 194.28 126.017 195.271 128.156C198.334 134.747 201.8 141.091 205.111 147.548C206.193 149.666 209.342 147.731 208.267 145.625Z" fill="#BCB080"/>
<path d="M211.723 133.965C210.77 131.409 209.538 128.967 208.049 126.682C206.745 124.698 203.585 126.615 204.892 128.605C206.215 130.6 207.312 132.736 208.165 134.972C209 137.181 212.556 136.184 211.719 133.958L211.723 133.965Z" fill="#BCB080"/>
<path d="M182.332 152.864C182.403 154.231 183.239 155.773 183.649 157.073L185.515 162.678C185.609 162.953 185.764 163.202 185.97 163.407C186.175 163.611 186.425 163.766 186.7 163.859C186.975 163.952 187.267 163.98 187.555 163.942C187.842 163.903 188.117 163.799 188.358 163.638C188.481 163.614 188.601 163.578 188.718 163.532C192.795 161.915 196.578 159.64 199.917 156.796C200.192 156.5 200.365 156.123 200.407 155.721C200.449 155.319 200.36 154.914 200.152 154.567C199.246 152.981 198.315 151.41 197.302 149.89C196.656 148.829 195.926 147.404 194.856 146.698C192.75 145.315 189.581 147.729 187.697 148.6C185.813 149.471 182.192 150.248 182.332 152.864ZM194.974 153.073C195.386 153.749 195.801 154.43 196.213 155.106C193.832 156.967 191.215 158.505 188.432 159.681L187.537 156.989C187.146 155.808 186.503 154.512 186.173 153.259C187.221 152.621 188.699 152.205 189.669 151.752C190.809 151.222 191.982 150.577 193.182 150.131C193.866 151.057 194.466 152.041 194.974 153.073Z" fill="#BCB080"/>
<path d="M79 164C90.5714 142.202 115 117.839 136 111" stroke="#E5A024" stroke-width="6" stroke-linecap="round"/>
<path d="M120.5 112L126.5 122M113 116.5L119.5 126.5" stroke="#462902" stroke-width="5" stroke-linecap="round"/>
<path d="M229.215 162.453C241.18 148.937 211.077 88.4793 190.273 64.3332L192.054 80.0608L181.693 112.265L144.142 123.925C201.499 132.775 220.749 172.017 229.215 162.453Z" fill="#F8F4E4"/>
<path d="M185.402 105.967C173.707 122.485 152.816 127.006 138.891 117.147C124.966 107.288 122.289 86.0815 133.984 69.5637C145.678 53.0458 166.569 48.5247 180.495 58.3835C194.42 68.2423 197.096 89.449 185.402 105.967Z" fill="#F8F4E4" stroke="#E5A024" stroke-width="6"/>
<path d="M23.963 104.605C20.4586 108.315 16.6942 112.564 12.1216 115.003C12.0518 115.04 11.9844 115.081 11.9196 115.126C11.6995 115.184 11.4697 115.194 11.2454 115.156C9.23685 114.7 8.0379 117.577 9.91813 118.561C27.7963 128.018 50.5169 129.896 70.2727 126.707C75.4443 125.876 81.2298 125.087 85.8172 122.387C90.1356 119.843 93.2473 115.801 95.8483 111.603C98.4493 107.405 101.096 102.529 102.008 97.5602C102.441 95.1322 101.599 91.0065 102.986 88.9498C104.233 87.0907 101.479 85.5398 100.01 86.8071C91.1096 94.5744 78.5642 95.6473 67.2262 96.0453C56.3485 96.3935 45.4659 95.5272 34.7802 93.4626C34.3875 93.3829 33.9797 93.4274 33.6135 93.59C33.2472 93.7526 32.9407 94.0253 32.7364 94.37C30.2945 98.0906 26.989 101.402 23.963 104.605Z" fill="#EAE2C2"/>
<path d="M79.4037 117.059C81.78 112.873 83.5618 108.377 84.698 103.699C85.2605 101.383 81.6747 100.512 81.102 102.826C80.0376 107.194 78.368 111.392 76.1416 115.299C74.9676 117.364 78.2196 119.122 79.3936 117.057L79.4037 117.059Z" fill="#BCB080"/>
<path d="M64.3931 120.266C67.3015 115.131 69.5904 109.669 71.2118 103.995C71.8696 101.707 68.2775 100.84 67.6159 103.122C66.078 108.489 63.908 113.655 61.1512 118.51C59.9773 120.576 63.2293 122.334 64.4032 120.268L64.3931 120.266Z" fill="#BCB080"/>
<path d="M51.1608 120.424C54.0904 115.553 56.499 110.387 58.3466 105.012C59.1238 102.764 55.5293 101.907 54.7507 104.138C52.989 109.215 50.6975 114.092 47.914 118.689C46.6879 120.725 49.936 122.477 51.166 120.447L51.1608 120.424Z" fill="#BCB080"/>
<path d="M27.6213 107.413L23.7611 114.958C23.5318 115.39 23.4816 115.895 23.6214 116.363C23.7612 116.832 24.0797 117.227 24.5081 117.463C27.8853 118.972 31.4574 120.001 35.1201 120.519C35.5896 120.594 36.0703 120.495 36.4713 120.239C36.8723 119.984 37.1658 119.59 37.2963 119.133C37.3278 119.114 37.3594 119.094 37.3679 119.037C38.894 116.415 40.2322 113.688 41.3723 110.877C41.7851 109.864 41.4711 108.411 40.183 108.2L29.6686 106.469C29.2713 106.388 28.8586 106.437 28.4905 106.606C28.1223 106.776 27.8179 107.059 27.6213 107.413ZM34.4262 116.666C32.2206 116.28 30.0557 115.689 27.9593 114.902L30.2865 110.325L37.1054 111.46C36.2916 113.231 35.3977 114.969 34.4237 116.676L34.4262 116.666Z" fill="#BCB080"/>
<path d="M180.684 7.89939C178.243 18.6665 172.613 28.4478 164.53 35.9678C164.21 36.2331 164.008 36.614 163.968 37.0274C163.929 37.4408 164.054 37.8533 164.316 38.175C164.437 38.5062 164.672 38.7835 164.979 38.9567C165.286 39.1299 165.645 39.1877 165.991 39.1196C165.768 39.1515 165.781 39.0741 165.991 39.1196C166.119 39.0961 166.245 39.06 166.367 39.0118C166.246 39.062 166.12 39.0981 165.991 39.1196C166.09 39.1397 166.188 39.1705 166.281 39.2114C166.652 39.3661 167.01 39.5285 167.379 39.6934C168.568 40.2242 169.725 40.8173 170.886 41.4003C173.764 42.8578 176.567 44.3184 179.363 45.8259C183.918 48.2445 188.447 51.1197 193.332 52.8009C203.398 56.127 214.037 57.3623 224.598 56.431C229.282 56.1641 233.924 55.3965 238.445 54.1412C241.53 53.1964 245.692 50.1247 248.982 50.5527C251.297 50.8731 252.215 47.5621 249.855 46.9568C224.355 40.4554 201.351 26.547 183.746 6.98639C182.774 5.95975 180.979 6.62087 180.684 7.89939Z" fill="#EAE2C2"/>
<path d="M189.806 51.4173C198.163 57.422 209.153 58.2142 219.123 58.1562C229.746 58.09 240.363 56.0539 249.464 50.4061L249.609 50.3177C249.669 50.3034 249.725 50.2761 249.774 50.2376C249.822 50.1992 249.861 50.1506 249.889 50.0952C249.984 50.0376 250.078 49.9799 250.173 49.9222C250.678 49.6146 250.196 48.809 249.692 49.1331C249.497 49.2523 249.307 49.3677 249.111 49.4869C235.73 53.0945 221.247 50.12 210.718 41.0329C210.628 40.949 210.509 40.9038 210.386 40.9072C210.263 40.9107 210.147 40.9624 210.062 41.0512C207.801 44.2027 204.776 46.7272 201.27 48.3871C197.765 50.047 193.895 50.7878 190.024 50.5399C189.498 50.5142 189.477 51.1761 189.806 51.4173Z" fill="#D3C9AD"/>
<path d="M182.978 38.2488C185.851 34.5916 188.522 30.7802 190.979 26.8317C192.234 24.8127 188.979 23.0648 187.727 25.0736C185.443 28.751 182.959 32.3009 180.288 35.7074C178.825 37.5681 181.528 40.1449 182.981 38.2387L182.978 38.2488Z" fill="#BCB080"/>
<path d="M191.558 42.3442C194.176 39.5952 196.646 36.7171 198.969 33.7097C200.428 31.8428 197.729 29.2723 196.276 31.1785C193.944 34.1799 191.474 37.0581 188.865 39.8129C187.231 41.5353 189.911 44.0742 191.558 42.3442Z" fill="#BCB080"/>
<path d="M202.223 43.8966C202.961 42.6362 203.8 41.4369 204.729 40.31C205.056 39.9476 205.23 39.473 205.215 38.9854C205.2 38.4977 204.998 38.0346 204.649 37.6927C204.292 37.355 203.815 37.1725 203.323 37.1851C202.831 37.1977 202.365 37.4043 202.025 37.7598C200.889 39.1296 199.864 40.5875 198.959 42.1196C197.751 44.1712 201.003 45.9293 202.211 43.8777L202.223 43.8966Z" fill="#BCB080"/>
<path d="M221.501 45.1097C222.352 44.2108 223.067 43.1921 223.623 42.086C223.856 41.6548 223.909 41.1486 223.769 40.6788C223.629 40.209 223.308 39.8141 222.876 39.581C222.445 39.3479 221.939 39.2956 221.469 39.4357C220.999 39.5758 220.604 39.8967 220.371 40.328C219.977 41.1549 219.443 41.9077 218.793 42.5532C218.627 42.73 218.497 42.9379 218.411 43.1648C218.325 43.3918 218.285 43.6335 218.292 43.876C218.3 44.1186 218.355 44.3573 218.455 44.5785C218.554 44.7997 218.697 44.9991 218.874 45.1654C219.05 45.3316 219.258 45.4613 219.485 45.5472C219.712 45.6331 219.954 45.6734 220.196 45.6659C220.439 45.6584 220.678 45.6032 220.899 45.5034C221.12 45.4036 221.32 45.2613 221.486 45.0844L221.501 45.1097Z" fill="#BCB080"/>
<path d="M63.1056 52.463C80.4916 50.5272 93.1227 65.8208 108.005 71.9795C121.486 77.5239 136.44 78.379 150.466 74.4076C150.808 74.3277 151.116 74.1414 151.346 73.8754C151.576 73.6095 151.716 73.2775 151.745 72.9272C151.988 72.6958 152.167 72.4049 152.263 72.0833C152.359 71.7617 152.37 71.4206 152.294 71.0936C152.218 70.7666 152.058 70.4651 151.83 70.2189C151.602 69.9726 151.313 69.7902 150.993 69.6895C133.738 64.6217 120.689 51.3998 104.372 44.3063C90.4936 38.246 72.7463 37.3294 61.6993 49.3729C60.7304 50.4392 61.4627 52.6502 63.1056 52.463Z" fill="#EAE2C2"/>
<path d="M135.052 66.9366C128.238 67.2618 121.409 66.8828 114.673 65.8056C112.339 65.427 111.439 69.0219 113.8 69.4016C120.849 70.5514 127.999 70.9703 135.134 70.6517C137.511 70.5457 137.446 66.8458 135.064 66.9556L135.052 66.9366Z" fill="#BCB080"/>
<path d="M120.128 58.9603L102.725 59.7464C100.349 59.8523 100.413 63.5522 102.796 63.4425L120.198 62.6564C122.574 62.5505 122.51 58.8505 120.128 58.9603Z" fill="#BCB080"/>
<path d="M106.588 51.8368L91.0468 54.0162C88.7152 54.3374 88.7475 58.0134 91.1173 57.7123L106.677 55.5213C109.009 55.2002 108.977 51.5241 106.607 51.8253L106.588 51.8368Z" fill="#BCB080"/>
<path d="M91.8513 46.1865C88.9415 46.4131 86.0962 47.1613 83.4513 48.3954C81.2953 49.3885 83.2369 52.5333 85.374 51.5517C87.4391 50.615 89.6538 50.0513 91.9155 49.8865C94.2784 49.702 94.2245 46.0045 91.845 46.1904L91.8513 46.1865Z" fill="#BCB080"/>
</g>
<defs>
<clipPath id="clip0">
<rect width="260" height="190" fill="white"/>
</clipPath>
</defs>
</svg>
