<svg width="260" height="190" viewBox="0 0 260 190" fill="none" xmlns="http://www.w3.org/2000/svg">
<path d="M135.977 12.138C128.587 7.50803 120.187 10.898 115.407 17.518C111.58 22.9656 109.867 29.6197 110.587 36.238C105.727 31.318 100.097 27.148 92.8871 28.338C90.9613 28.6158 89.125 29.3323 87.52 30.4324C85.915 31.5324 84.5843 32.9866 83.6305 34.6826C82.6767 36.3785 82.1253 38.271 82.019 40.2139C81.9126 42.1568 82.2542 44.0981 83.0172 45.888C90.4572 64.288 115.357 66.258 130.527 74.798C130.908 75.0032 131.334 75.1075 131.766 75.1009C132.199 75.0944 132.622 74.9772 132.996 74.7606C133.37 74.544 133.682 74.2352 133.903 73.8636C134.124 73.492 134.246 73.0701 134.257 72.638C134.356 72.4833 134.44 72.3191 134.507 72.148C139.081 60.8118 142.306 48.9773 144.117 36.888C145.357 27.998 144.367 17.428 135.977 12.138Z" fill="#CF4327"/>
<path d="M155.137 104.768C151.427 96.3083 139.207 106.958 132.987 113.408V72.6483C132.953 72.1746 132.74 71.7316 132.392 71.4083C132.044 71.085 131.587 70.9053 131.112 70.9053C130.637 70.9053 130.18 71.085 129.832 71.4083C129.484 71.7316 129.272 72.1746 129.237 72.6483V115.648C124.137 111.288 112.557 101.948 111.447 110.948C110.307 120.198 123.237 123.098 129.787 124.218C130.135 124.284 130.494 124.252 130.825 124.125C131.155 123.998 131.444 123.781 131.657 123.498C131.878 123.504 132.098 123.47 132.307 123.398C138.307 121.348 144.857 119.048 149.997 115.228C152.927 112.998 156.907 108.798 155.137 104.768ZM116.287 114.548C115.8 113.97 115.458 113.285 115.287 112.548C115.641 110.948 116.307 110.672 117.287 111.718C118.417 111.978 119.827 113.328 120.797 113.988C123.46 115.803 126.027 117.756 128.487 119.838C128.734 120.048 129.03 120.193 129.347 120.258C129.347 120.258 129.347 120.258 129.347 120.318C124.637 119.548 119.107 118.458 116.297 114.548H116.287ZM143.637 114.678C140.192 116.414 136.634 117.918 132.987 119.178V118.998C135.27 116.208 137.822 113.648 140.607 111.358C141.877 110.358 151.297 102.978 151.707 107.358C151.997 110.478 145.967 113.478 143.647 114.678H143.637Z" fill="#3B301B"/>
<path d="M181.397 155.998C178.064 142.911 174.571 129.868 170.917 116.868C170.77 116.341 170.455 115.877 170.02 115.545C169.585 115.213 169.054 115.031 168.507 115.028C162.967 115.638 157.557 117.288 152.147 118.578L128.147 124.308L105.147 129.808L93.6472 132.558C91.1972 133.148 88.8772 133.258 87.0472 135.028C86.7319 135.338 86.5061 135.727 86.3935 136.155C86.2809 136.583 86.2856 137.033 86.4072 137.458C90.3072 147.908 93.7872 158.458 96.7772 169.238C97.5872 172.148 97.7772 177.798 100.247 179.698C102.717 181.598 109.027 179.188 111.977 178.618C134.445 174.429 156.562 168.539 178.137 160.998C178.595 160.845 178.997 160.563 179.296 160.184C179.594 159.806 179.776 159.348 179.817 158.868C180.398 158.683 180.886 158.282 181.18 157.748C181.474 157.214 181.551 156.588 181.397 155.998Z" fill="#EAE2C2"/>
<path d="M169.587 150.268C164.7 146.985 159.537 144.131 154.157 141.738L157.097 136.508C159.677 131.938 161.987 126.418 165.447 122.418C167.547 119.998 164.017 116.418 161.907 118.878C159.077 122.148 157.117 126.298 155.007 130.038C151.747 135.798 148.557 141.608 145.137 147.278C143.925 149.439 142.589 151.529 141.137 153.538C140.837 153.918 140.247 154.948 139.837 155.058C140.957 154.768 135.327 152.548 137.647 153.588C136.487 153.068 135.227 152.708 134.037 152.268L97.9372 139.068C94.9372 137.958 93.6072 142.788 96.6072 143.888L121.587 153.058C119.3 156.679 117.204 160.418 115.307 164.258C113.887 167.138 118.197 169.668 119.627 166.778C121.655 162.655 123.912 158.649 126.387 154.778L135.307 158.038C138.097 159.038 140.437 160.698 143.007 158.768C144.537 157.618 145.667 155.628 146.707 154.058C148.447 151.448 150.057 148.758 151.637 146.058C156.999 148.447 162.145 151.294 167.017 154.568C169.707 156.388 172.217 152.058 169.587 150.268Z" fill="#E5A024"/>
<path d="M92.0471 35.9981C90.5271 38.3464 89.9853 41.1958 90.5372 43.9381C90.7172 44.5697 91.1368 45.1061 91.7065 45.433C92.2762 45.7598 92.951 45.8514 93.5871 45.6881C94.2197 45.4993 94.7548 45.0735 95.0809 44.4996C95.407 43.9257 95.4988 43.2481 95.3371 42.6081C95.1236 41.1665 95.4825 39.6985 96.3371 38.5181C96.5967 37.9549 96.6377 37.3153 96.4521 36.7235C96.2665 36.1318 95.8676 35.6302 95.3329 35.3161C94.7982 35.002 94.1658 34.8978 93.5586 35.0239C92.9514 35.1499 92.4127 35.4971 92.0471 35.9981Z" fill="#EAE2C2"/>
<path d="M125.587 16.9979C123.059 18.6231 121.132 21.0294 120.098 23.8507C119.063 26.6721 118.979 29.7541 119.857 32.6279C120.857 35.6879 125.647 34.3779 124.677 31.2979C124.07 29.4859 124.076 27.5241 124.697 25.7163C125.317 23.9086 126.515 22.3556 128.107 21.2979C130.787 19.5379 128.287 15.2079 125.587 16.9779V16.9979Z" fill="#EAE2C2"/>
<path d="M168.687 103.998C170.653 99.3223 172.96 94.7969 175.587 90.4581C177.247 87.6981 172.927 85.1781 171.267 87.9381C168.445 92.6508 165.972 97.564 163.867 102.638C162.627 105.638 167.467 106.898 168.687 103.968V103.998Z" fill="#CF4327"/>
<path d="M180.637 108.998L191.937 99.6278C194.417 97.5678 190.867 94.0478 188.397 96.0878L177.097 105.458C174.617 107.518 178.167 111.038 180.637 108.998Z" fill="#CF4327"/>
<path d="M183.587 121.778H194.917C198.137 121.778 198.137 116.778 194.917 116.778H183.587C180.367 116.778 180.367 121.778 183.587 121.778Z" fill="#CF4327"/>
<path d="M82.3933 94.9216C74.8433 100.072 63.1633 108.282 52.9733 107.742C54.4894 105.418 55.2571 102.685 55.1733 99.9116C54.9333 91.4216 43.9033 85.9116 38.6333 93.8316C34.4333 100.182 38.2033 106.452 43.7833 109.922C40.1533 112.582 35.6833 114.312 31.6633 115.922C28.7233 117.122 30.0033 121.922 32.9933 120.742C37.9133 118.742 44.3333 116.102 48.9933 112.152C49.794 112.359 50.6099 112.503 51.4333 112.582C63.1833 113.692 75.6533 105.522 84.9033 99.2116C87.5633 97.4416 85.0733 93.1016 82.3933 94.9216ZM44.5633 95.9216C45.85 94.5883 46.9666 94.6349 47.9133 96.0616C48.613 96.4191 49.1968 96.9678 49.5969 97.6441C49.997 98.3203 50.1969 99.0962 50.1733 99.8816C50.1667 101.943 49.4617 103.942 48.1733 105.552C47.9633 105.852 47.7433 106.142 47.5133 106.422C43.5533 104.532 39.0233 98.6316 44.5733 95.9516L44.5633 95.9216Z" fill="#F8F4E4"/>
<path d="M225.431 24.6968C224.494 21.5176 219.588 23.185 220.52 26.3559C222.472 33.1686 217.539 41.415 211.735 44.8455C210.474 45.5968 209.11 46.1589 207.686 46.514C209.625 41.8056 209.259 35.9498 205.495 32.2278C203.748 30.5429 201.448 29.551 199.023 29.437C196.599 29.323 194.215 30.0948 192.318 31.6084C188.289 35.0242 188.914 41.1393 191.626 45.1968C193.169 47.4845 195.307 49.3079 197.81 50.4705C196.68 51.2513 195.499 51.9552 194.274 52.5773C187.29 56.1887 179.027 58.3339 171.171 57.5399C167.894 57.2047 166.88 62.2661 170.185 62.6067C180.697 63.6726 196.088 60.5446 204.056 52.0245C204.945 52.0732 205.836 52.0491 206.721 51.9524C218.735 50.5948 228.796 36.4308 225.431 24.6968ZM198.408 44.8815C195.524 42.7858 191.65 34.9651 198.26 34.5369C204.149 34.1846 204.473 41.9627 202.365 45.7235C202.211 45.9961 202.032 46.2494 201.85 46.5166C200.613 46.1891 199.448 45.6325 198.416 44.8759L198.408 44.8815Z" fill="#F8F4E4"/>
</svg>
