<svg width="260" height="190" viewBox="0 0 260 190" fill="none" xmlns="http://www.w3.org/2000/svg">
<path d="M39.4747 44.6609C37.4138 43.9903 34.562 44.2099 32.3645 44.0158L22.8166 43.2997C22.3474 43.2679 21.8722 43.3302 21.4276 43.4816C20.983 43.633 20.581 43.8696 20.2527 44.173C19.9243 44.4765 19.6783 44.8386 19.5338 45.2316C19.3893 45.6245 19.3501 46.0376 19.4192 46.4391C19.3688 46.6113 19.3372 46.7866 19.3247 46.9628C18.8541 53.1331 19.5582 59.292 21.4087 65.1929C21.651 65.7142 22.0859 66.1471 22.6477 66.4261C23.2095 66.7051 23.8677 66.8152 24.5229 66.7397C27.4882 66.4541 30.4486 66.1273 33.3928 65.6666C35.4037 65.4233 38.0092 65.2754 39.7963 64.2856C43.3011 62.3353 41.9627 56.894 41.998 53.9731C42.0333 51.0523 43.4187 45.94 39.4747 44.6609ZM30.3363 60.8826C29.0555 61.0376 27.7628 61.194 26.4819 61.349C25.4084 57.2339 24.9731 52.9949 25.1875 48.7415L29.7715 49.086C31.7819 49.24 34.1373 49.1327 36.2106 49.4046C36.4175 51.1149 35.9965 53.2566 35.9845 54.7634C35.9677 56.5321 36.0975 58.4085 35.9144 60.2078C34.076 60.5749 32.2093 60.8008 30.3363 60.8826Z" fill="#EAE2C2"/>
<path d="M27.5 52.5L34 58.5C35.3333 54.3333 40.6 44.7 51 39.5" stroke="#CF4327" stroke-width="5" stroke-linecap="round" stroke-linejoin="round"/>
<path d="M249.602 99.8624C235.157 88.7828 224.106 73.8773 217.701 56.8363C217.601 56.4554 217.417 56.1017 217.162 55.8009C216.908 55.5002 216.589 55.2601 216.23 55.0981C215.871 54.936 215.481 54.8561 215.087 54.8643C214.693 54.8724 214.306 54.9684 213.954 55.1451C198.609 62.1835 184.906 72.3526 173.723 84.9998C161.848 98.5488 153.108 114.772 138.541 125.812C138.259 126.007 138.028 126.267 137.867 126.569C137.705 126.872 137.618 127.208 137.613 127.551C137.607 127.894 137.684 128.233 137.835 128.541C137.987 128.848 138.21 129.115 138.485 129.319C138.548 129.451 138.621 129.578 138.703 129.699C148.994 144.383 160.168 158.428 172.162 171.757C172.645 172.241 173.295 172.52 173.978 172.536C174.661 172.553 175.325 172.306 175.83 171.846C201.962 151.912 215.201 114.186 248.862 104.623C249.358 104.494 249.805 104.223 250.148 103.843C250.491 103.463 250.716 102.991 250.795 102.485C250.873 101.98 250.802 101.462 250.59 100.996C250.378 100.53 250.035 100.136 249.602 99.8624Z" fill="#EAE2C2"/>
<path d="M204.649 77.7267C210.942 86.6293 217.566 95.2733 224.522 103.659C226.655 106.228 230.405 102.641 228.279 100.079C221.622 92.088 215.263 83.8126 209.202 75.2533C207.292 72.557 202.704 74.9782 204.628 77.7042L204.649 77.7267Z" fill="#BCB080"/>
<path d="M192.829 86.5791C198.238 95.1764 204.041 103.504 210.237 111.563C212.272 114.211 216.007 110.609 213.994 107.984C208.088 100.289 202.56 92.3401 197.41 84.1357C195.643 81.3181 191.055 83.754 192.836 86.5866L192.829 86.5791Z" fill="#BCB080"/>
<path d="M189.409 123.75C191.407 125.675 193.24 127.765 194.888 129.997C195.364 130.493 196.017 130.78 196.704 130.797C197.391 130.814 198.057 130.558 198.556 130.086C199.04 129.603 199.319 128.953 199.336 128.27C199.352 127.587 199.105 126.924 198.645 126.418C196.997 124.186 195.164 122.096 193.167 120.17C190.771 117.851 186.999 121.43 189.409 123.75Z" fill="#BCB080"/>
<path d="M186.018 132.226C187.554 134.275 189.443 136.033 191.596 137.419C194.385 139.249 197.062 134.807 194.266 132.97C192.523 131.809 191.002 130.345 189.775 128.647C189.299 128.152 188.647 127.864 187.96 127.847C187.272 127.831 186.607 128.086 186.107 128.558C185.623 129.041 185.344 129.691 185.328 130.375C185.311 131.058 185.558 131.721 186.018 132.226Z" fill="#BCB080"/>
<path d="M157.553 124.915C164.02 132.787 170.667 140.472 176.835 148.586C178.848 151.241 182.591 147.646 180.592 145.007C174.425 136.878 167.777 129.207 161.31 121.336C159.192 118.752 155.449 122.346 157.553 124.915Z" fill="#BCB080"/>
<path d="M156.288 141.944C158.357 145.165 160.776 148.149 163.501 150.839C165.881 153.173 169.646 149.601 167.258 147.26C164.849 144.917 162.706 142.314 160.869 139.5C159.065 136.718 154.484 139.147 156.295 141.951L156.288 141.944Z" fill="#BCB080"/>
<path d="M190.977 107.249C190.471 105.394 188.865 103.528 187.914 101.868L183.683 94.7327C183.472 94.3842 183.184 94.0887 182.841 93.8692C182.498 93.6497 182.11 93.512 181.705 93.4667C181.3 93.4214 180.89 93.4698 180.507 93.608C180.124 93.7463 179.778 93.9708 179.496 94.2641C179.334 94.3338 179.18 94.4185 179.034 94.5172C173.923 97.9504 169.41 102.201 165.678 107.098C165.388 107.586 165.264 108.155 165.326 108.719C165.388 109.284 165.631 109.812 166.02 110.226C167.736 112.132 169.481 114.01 171.325 115.794C172.527 117.056 173.953 118.794 175.633 119.444C178.935 120.713 182.562 116.456 184.887 114.699C187.213 112.942 191.948 110.796 190.977 107.249ZM173.569 110.732C172.803 109.928 172.03 109.117 171.264 108.313C173.976 105.05 177.106 102.159 180.575 99.715L182.606 103.141C183.494 104.645 184.762 106.232 185.589 107.853C184.342 109.041 182.438 110.052 181.241 110.962C179.835 112.029 178.418 113.265 176.905 114.234C175.691 113.168 174.574 111.996 173.569 110.732Z" fill="#BCB080"/>
<path d="M211.296 97.7946L205.275 78.0383C205.02 77.1976 204.471 76.4666 203.724 75.9741C203.402 75.6489 203.016 75.3908 202.589 75.2158C202.163 75.0408 201.706 74.9527 201.247 74.9571C200.787 74.9614 200.336 75.058 199.919 75.2409C199.503 75.4238 199.131 75.6891 198.827 76.0201C198.523 76.2354 198.259 76.4996 198.046 76.8016L184.47 90.329C183.984 90.7788 183.627 91.3458 183.435 91.9747C183.243 92.6036 183.222 93.2731 183.374 93.9182C183.526 94.5632 183.846 95.1618 184.302 95.6558C184.759 96.1498 185.336 96.5225 185.979 96.7375L206.383 102.209C209.087 102.929 212.179 100.692 211.296 97.7946Z" fill="white"/>
<path d="M203.845 76.1389L149.62 22.4877C149.108 21.9307 148.399 21.5998 147.646 21.5657C146.892 21.5316 146.153 21.797 145.586 22.3053L130.299 38.0916C129.744 38.6128 129.411 39.3312 129.372 40.0933C129.333 40.8553 129.59 41.6004 130.089 42.1692L184.314 95.8205C184.743 96.2797 185.307 96.5864 185.924 96.6952C186.54 96.804 187.176 96.7092 187.738 96.4247C190.938 94.5406 195.527 92.8977 198.154 90.2536C200.78 87.6094 202.328 82.9188 204.113 79.6567C204.152 79.5509 204.186 79.4431 204.214 79.3337C204.546 78.8436 204.692 78.2495 204.624 77.6618C204.556 77.0742 204.28 76.533 203.845 76.1389Z" fill="#E5A024"/>
<path d="M141.211 36.2417L193.026 87.4742C194.625 89.0568 197.232 86.6709 195.619 85.0841L143.804 33.8516C142.206 32.269 139.599 34.6549 141.211 36.2417Z" fill="#EAE2C2"/>
<path d="M149.526 22.6724C143.689 17.5944 135.016 16.8837 129.364 22.3737C126.75 24.96 125.296 28.4557 125.311 32.1177C125.326 35.7796 126.809 39.3188 129.445 41.9829C130.152 42.7194 131.123 43.163 132.148 43.2186C133.174 43.2743 134.174 42.9377 134.934 42.2808L149.315 27.9876C149.574 27.7237 149.793 27.426 149.968 27.1029C150.254 26.797 150.47 26.4355 150.604 26.0413C150.738 25.647 150.785 25.2285 150.744 24.8122C150.702 24.3959 150.573 23.9908 150.363 23.6225C150.154 23.2542 149.869 22.9307 149.526 22.6724Z" fill="#CF4327"/>
<path d="M211.27 97.8037L209.831 93.579C209.686 92.9706 209.354 92.4046 208.876 91.9507C208.652 91.7437 208.405 91.5587 208.139 91.3993C207.751 91.1244 207.312 90.9202 206.848 90.7984C206.383 90.6766 205.902 90.6395 205.432 90.6893L205.032 90.732C204.361 90.8258 203.75 91.109 203.279 91.5434L200.107 94.5234C199.615 94.9522 199.26 95.4975 199.074 96.1064C198.888 96.7152 198.879 97.3668 199.048 97.9978C199.216 98.6288 199.557 99.2179 200.036 99.7076C200.515 100.197 201.116 100.571 201.781 100.793L206.438 102.052C209.095 102.761 212.233 100.642 211.27 97.8037Z" fill="#3B301B"/>
<line x1="55.0531" y1="55.054" x2="105.054" y2="55.9469" stroke="#EAE2C2" stroke-width="6" stroke-linecap="round"/>
<path d="M7.82053 101.268C9.80998 102.128 12.6699 102.175 14.8398 102.573L24.2795 104.175C24.7437 104.25 25.2227 104.232 25.6795 104.123C26.1362 104.013 26.5585 103.815 26.9136 103.544C27.2688 103.272 27.5474 102.934 27.7279 102.557C27.9083 102.179 27.9859 101.771 27.9544 101.365C28.0206 101.198 28.0684 101.027 28.0973 100.852C29.1402 94.7526 29.0125 88.555 27.7193 82.5074C27.5265 81.9658 27.1338 81.4943 26.6005 81.1642C26.0671 80.8341 25.422 80.6633 24.7626 80.6774C21.7836 80.6857 18.8056 80.7355 15.8314 80.9202C13.8065 80.9752 11.1986 80.88 9.32711 81.6991C5.65597 83.3147 6.48203 88.8569 6.175 91.7618C5.86798 94.6667 4.01264 99.6278 7.82053 101.268ZM18.4292 85.9679C19.7189 85.9328 21.0206 85.8975 22.3103 85.8624C22.9961 90.0595 23.0349 94.3207 22.4255 98.5356L17.8935 97.7659C15.9061 97.4254 13.551 97.313 11.512 96.8493C11.4652 95.1271 12.0837 93.034 12.236 91.5348C12.4173 89.7753 12.4627 87.895 12.8125 86.1205C14.6771 85.9262 16.5568 85.8751 18.4292 85.9679Z" fill="#EAE2C2"/>
<path d="M13.5 89L20 95C21.3333 90.8333 26.6 81.2 37 76" stroke="#CF4327" stroke-width="5" stroke-linecap="round" stroke-linejoin="round"/>
<line x1="41.0531" y1="91.554" x2="91.054" y2="92.4469" stroke="#EAE2C2" stroke-width="6" stroke-linecap="round"/>
<path d="M42.3491 137.219C43.0608 135.172 42.8984 132.316 43.1364 130.123L44.0435 120.592C44.0847 120.123 44.0319 119.647 43.8894 119.199C43.7469 118.752 43.5184 118.345 43.2216 118.011C42.9248 117.676 42.5677 117.423 42.1777 117.271C41.7878 117.118 41.3755 117.071 40.9727 117.132C40.8016 117.078 40.6269 117.043 40.451 117.027C34.2914 116.433 28.1196 117.014 22.1828 118.746C21.6568 118.978 21.2153 119.404 20.9251 119.96C20.6349 120.516 20.5117 121.172 20.574 121.828C20.8002 124.799 21.0677 127.765 21.4694 130.718C21.6724 132.733 21.7681 135.341 22.7219 137.148C24.6017 140.691 30.0687 139.462 32.9882 139.555C35.9078 139.649 40.9913 141.137 42.3491 137.219ZM26.3135 127.758C26.1843 126.474 26.0538 125.179 25.9245 123.895C30.0602 122.904 34.3071 122.554 38.5553 122.853L38.1192 127.429C37.925 129.436 37.985 131.793 37.6717 133.861C35.9576 134.033 33.8248 133.57 32.3185 133.527C30.5505 133.475 28.6719 133.567 26.8766 133.348C26.5464 131.503 26.3579 129.632 26.3135 127.758Z" fill="#EAE2C2"/>
<path d="M28.2068 126.859L35.5937 131.726C36.2338 127.398 39.8687 117.038 49.2878 110.22" stroke="#CF4327" stroke-width="5" stroke-linecap="round" stroke-linejoin="round"/>
<line x1="58.0531" y1="127.054" x2="108.054" y2="127.947" stroke="#EAE2C2" stroke-width="6" stroke-linecap="round"/>
</svg>
