<svg width="93" height="45" viewBox="0 0 93 45" fill="none" xmlns="http://www.w3.org/2000/svg">
<path d="M5.72 38H2.31C2.03133 38 1.826 37.9413 1.694 37.824C1.57667 37.692 1.518 37.4867 1.518 37.208V22.952C1.518 22.6733 1.57667 22.4753 1.694 22.358C1.826 22.226 2.03133 22.16 2.31 22.16H9.042C11.0367 22.16 12.4007 22.556 13.134 23.348C13.8673 24.14 14.234 25.174 14.234 26.45V29.266C14.234 30.542 13.8673 31.576 13.134 32.368C12.4007 33.16 11.0367 33.556 9.042 33.556H6.512V37.208C6.512 37.4867 6.446 37.692 6.314 37.824C6.19667 37.9413 5.99867 38 5.72 38ZM6.468 26.274V29.596H8.448C8.87333 29.596 9.152 29.486 9.284 29.266C9.416 29.046 9.482 28.7967 9.482 28.518V27.352C9.482 27.0733 9.416 26.824 9.284 26.604C9.152 26.384 8.87333 26.274 8.448 26.274H6.468ZM21.8213 26.78L20.7873 30.124H24.2413L23.2072 26.78C23.1486 26.648 23.0826 26.5527 23.0092 26.494C22.9506 26.4353 22.8773 26.406 22.7893 26.406H22.2392C22.1513 26.406 22.0706 26.4353 21.9973 26.494C21.9386 26.5527 21.8799 26.648 21.8213 26.78ZM20.5672 37.208C20.5672 37.4867 20.5012 37.692 20.3692 37.824C20.2519 37.9413 20.0539 38 19.7753 38H16.5412C16.2626 38 16.0572 37.9413 15.9252 37.824C15.8079 37.692 15.7492 37.4867 15.7492 37.208V31.4C15.7492 30.96 15.8152 30.454 15.9472 29.882C16.0939 29.31 16.3139 28.6427 16.6072 27.88L18.5212 22.886C18.6092 22.6367 18.7412 22.4533 18.9173 22.336C19.1079 22.2187 19.3499 22.16 19.6432 22.16H25.5612C25.8399 22.16 26.0673 22.2187 26.2433 22.336C26.4339 22.4533 26.5733 22.6367 26.6612 22.886L28.5753 27.88C28.8686 28.6427 29.0812 29.31 29.2132 29.882C29.3599 30.454 29.4333 30.96 29.4333 31.4V37.208C29.4333 37.4867 29.3673 37.692 29.2353 37.824C29.1179 37.9413 28.9199 38 28.6413 38H25.3193C25.0259 38 24.8059 37.9413 24.6593 37.824C24.5273 37.692 24.4613 37.4867 24.4613 37.208V34.128H20.5672V37.208ZM36.9016 26.12V28.936H38.5516C38.9329 28.936 39.1896 28.8407 39.3216 28.65C39.4536 28.4447 39.5196 28.1953 39.5196 27.902V27.154C39.5196 26.8607 39.4536 26.6187 39.3216 26.428C39.1896 26.2227 38.9329 26.12 38.5516 26.12H36.9016ZM36.1096 38H32.7216C32.4429 38 32.2376 37.9413 32.1056 37.824C31.9882 37.692 31.9296 37.4867 31.9296 37.208V22.952C31.9296 22.6733 31.9882 22.4753 32.1056 22.358C32.2376 22.226 32.4429 22.16 32.7216 22.16H40.0476C41.6902 22.16 42.8196 22.5047 43.4356 23.194C44.0662 23.8687 44.3816 24.7487 44.3816 25.834V26.846C44.3816 27.462 44.2862 27.99 44.0956 28.43C43.9196 28.8553 43.6042 29.1633 43.1496 29.354C43.9416 29.442 44.5796 29.7647 45.0636 30.322C45.5622 30.8793 45.8116 31.62 45.8116 32.544V37.208C45.8116 37.4867 45.7456 37.692 45.6136 37.824C45.4962 37.9413 45.2982 38 45.0196 38H41.6096C41.3309 38 41.1256 37.9413 40.9936 37.824C40.8762 37.692 40.8176 37.4867 40.8176 37.208V33.842C40.8176 33.5193 40.7516 33.2847 40.6196 33.138C40.5022 32.9767 40.2896 32.896 39.9816 32.896H36.9016V37.208C36.9016 37.4867 36.8356 37.692 36.7036 37.824C36.5862 37.9413 36.3882 38 36.1096 38ZM53.8012 26.78L52.7672 30.124H56.2212L55.1872 26.78C55.1285 26.648 55.0625 26.5527 54.9892 26.494C54.9305 26.4353 54.8572 26.406 54.7692 26.406H54.2192C54.1312 26.406 54.0505 26.4353 53.9772 26.494C53.9185 26.5527 53.8598 26.648 53.8012 26.78ZM52.5472 37.208C52.5472 37.4867 52.4812 37.692 52.3492 37.824C52.2318 37.9413 52.0338 38 51.7552 38H48.5212C48.2425 38 48.0372 37.9413 47.9052 37.824C47.7878 37.692 47.7292 37.4867 47.7292 37.208V31.4C47.7292 30.96 47.7952 30.454 47.9272 29.882C48.0738 29.31 48.2938 28.6427 48.5872 27.88L50.5012 22.886C50.5892 22.6367 50.7212 22.4533 50.8972 22.336C51.0878 22.2187 51.3298 22.16 51.6232 22.16H57.5412C57.8198 22.16 58.0472 22.2187 58.2232 22.336C58.4138 22.4533 58.5532 22.6367 58.6412 22.886L60.5552 27.88C60.8485 28.6427 61.0612 29.31 61.1932 29.882C61.3398 30.454 61.4132 30.96 61.4132 31.4V37.208C61.4132 37.4867 61.3472 37.692 61.2152 37.824C61.0978 37.9413 60.8998 38 60.6212 38H57.2992C57.0058 38 56.7858 37.9413 56.6392 37.824C56.5072 37.692 56.4412 37.4867 56.4412 37.208V34.128H52.5472V37.208ZM72.1155 38H64.7015C64.4228 38 64.2175 37.9413 64.0855 37.824C63.9682 37.692 63.9095 37.4867 63.9095 37.208V22.952C63.9095 22.6733 63.9682 22.4753 64.0855 22.358C64.2175 22.226 64.4228 22.16 64.7015 22.16H72.1155C73.9488 22.16 75.3055 22.5267 76.1855 23.26C77.0802 23.9933 77.5275 25.1227 77.5275 26.648V33.512C77.5275 35.0373 77.0802 36.1667 76.1855 36.9C75.3055 37.6333 73.9488 38 72.1155 38ZM68.9035 26.362V33.842H71.5215C71.8735 33.842 72.1302 33.754 72.2915 33.578C72.4675 33.402 72.5555 33.1307 72.5555 32.764V27.418C72.5555 27.0513 72.4675 26.7873 72.2915 26.626C72.1302 26.45 71.8735 26.362 71.5215 26.362H68.9035ZM91.1035 38H80.8955C80.6169 38 80.4115 37.9413 80.2795 37.824C80.1622 37.692 80.1035 37.4867 80.1035 37.208V22.952C80.1035 22.6733 80.1622 22.4753 80.2795 22.358C80.4115 22.226 80.6169 22.16 80.8955 22.16H91.1035C91.3822 22.16 91.5802 22.226 91.6975 22.358C91.8295 22.4753 91.8955 22.6733 91.8955 22.952V25.526C91.8955 25.8047 91.8295 26.01 91.6975 26.142C91.5802 26.2593 91.3822 26.318 91.1035 26.318H85.0315V28.012H89.3215C89.6002 28.012 89.7982 28.078 89.9155 28.21C90.0475 28.3273 90.1135 28.5253 90.1135 28.804V31.158C90.1135 31.4367 90.0475 31.642 89.9155 31.774C89.7982 31.8913 89.6002 31.95 89.3215 31.95H85.0315V33.842H91.1035C91.3822 33.842 91.5802 33.908 91.6975 34.04C91.8295 34.1573 91.8955 34.3553 91.8955 34.634V37.208C91.8955 37.4867 91.8295 37.692 91.6975 37.824C91.5802 37.9413 91.3822 38 91.1035 38Z" fill="white"/>
<path d="M20.3913 0H1.99999V16.5L20.3913 8.64865V2.16216V0Z" fill="#F8BB4D"/>
<path d="M20.3913 8.6V9.36219C20.3913 11.1065 22.151 12.3007 23.772 11.6565L32.6522 8.12747V2H20.3913V8.6Z" fill="#84673B"/>
<path d="M49 4H32.6522V8.23199C32.6522 9.09021 33.5063 9.68653 34.3119 9.39084L49 4Z" fill="#E3705E"/>
</svg>
